<mxfile host="Electron" modified="2023-05-12T06:45:09.620Z" agent="Mozilla/5.0 (Macintosh; Intel Mac OS X 10_15_7) AppleWebKit/537.36 (KHTML, like Gecko) draw.io/21.2.8 Chrome/112.0.5615.165 Electron/24.2.0 Safari/537.36" etag="tDUlCmrf9W0TgmT1JIdx" version="21.2.8" type="device">
  <diagram name="Page-1" id="5d7acffa-a066-3a61-03fe-96351882024d">
    <mxGraphModel dx="1020" dy="821" grid="0" gridSize="10" guides="1" tooltips="1" connect="1" arrows="1" fold="1" page="0" pageScale="1" pageWidth="1100" pageHeight="850" background="#ffffff" math="0" shadow="0">
      <root>
        <mxCell id="0" />
        <mxCell id="1" parent="0" />
        <mxCell id="kCOzz2MXneOkSR3qFhcY-11" style="edgeStyle=orthogonalEdgeStyle;rounded=1;orthogonalLoop=1;jettySize=auto;html=1;exitX=0.5;exitY=1;exitDx=0;exitDy=0;fontSize=14;dashed=1;endArrow=none;endFill=0;fontStyle=1;" parent="1" source="kCOzz2MXneOkSR3qFhcY-1" edge="1">
          <mxGeometry relative="1" as="geometry">
            <mxPoint x="145" y="752" as="targetPoint" />
          </mxGeometry>
        </mxCell>
        <mxCell id="kCOzz2MXneOkSR3qFhcY-1" value="Checkpoint&lt;br style=&quot;font-size: 14px&quot;&gt;Coordinator" style="rounded=1;whiteSpace=wrap;html=1;fontSize=14;fontStyle=1;" parent="1" vertex="1">
          <mxGeometry x="85" y="251" width="120" height="60" as="geometry" />
        </mxCell>
        <mxCell id="kCOzz2MXneOkSR3qFhcY-4" value="" style="group;fontSize=14;fontStyle=1;rounded=1;" parent="1" vertex="1" connectable="0">
          <mxGeometry x="413" y="250" width="120" height="93" as="geometry" />
        </mxCell>
        <mxCell id="kCOzz2MXneOkSR3qFhcY-2" value="" style="rounded=1;whiteSpace=wrap;html=1;fontSize=14;fontStyle=1;" parent="kCOzz2MXneOkSR3qFhcY-4" vertex="1">
          <mxGeometry width="120" height="60" as="geometry" />
        </mxCell>
        <mxCell id="kCOzz2MXneOkSR3qFhcY-3" value="source" style="text;html=1;align=center;verticalAlign=middle;resizable=0;points=[];autosize=1;strokeColor=none;fillColor=none;fontSize=14;fontStyle=1;rounded=1;" parent="kCOzz2MXneOkSR3qFhcY-4" vertex="1">
          <mxGeometry x="32" y="19.5" width="56" height="21" as="geometry" />
        </mxCell>
        <mxCell id="kCOzz2MXneOkSR3qFhcY-5" value="" style="group;fontSize=14;fontStyle=1;rounded=1;" parent="1" vertex="1" connectable="0">
          <mxGeometry x="636" y="245" width="120" height="93" as="geometry" />
        </mxCell>
        <mxCell id="kCOzz2MXneOkSR3qFhcY-6" value="" style="rounded=1;whiteSpace=wrap;html=1;fontSize=14;fontStyle=1;" parent="kCOzz2MXneOkSR3qFhcY-5" vertex="1">
          <mxGeometry width="120" height="60" as="geometry" />
        </mxCell>
        <mxCell id="kCOzz2MXneOkSR3qFhcY-7" value="sink" style="text;html=1;align=center;verticalAlign=middle;resizable=0;points=[];autosize=1;strokeColor=none;fillColor=none;fontSize=14;fontStyle=1;rounded=1;" parent="kCOzz2MXneOkSR3qFhcY-5" vertex="1">
          <mxGeometry x="41" y="19.5" width="38" height="21" as="geometry" />
        </mxCell>
        <mxCell id="kCOzz2MXneOkSR3qFhcY-12" style="edgeStyle=orthogonalEdgeStyle;rounded=1;orthogonalLoop=1;jettySize=auto;html=1;exitX=0.5;exitY=1;exitDx=0;exitDy=0;fontSize=14;dashed=1;endArrow=none;endFill=0;fontStyle=1;" parent="1" source="kCOzz2MXneOkSR3qFhcY-2" edge="1">
          <mxGeometry relative="1" as="geometry">
            <mxPoint x="473" y="755" as="targetPoint" />
          </mxGeometry>
        </mxCell>
        <mxCell id="kCOzz2MXneOkSR3qFhcY-13" style="edgeStyle=orthogonalEdgeStyle;rounded=1;orthogonalLoop=1;jettySize=auto;html=1;exitX=0.5;exitY=1;exitDx=0;exitDy=0;fontSize=14;dashed=1;endArrow=none;endFill=0;fontStyle=1;" parent="1" source="kCOzz2MXneOkSR3qFhcY-6" edge="1">
          <mxGeometry relative="1" as="geometry">
            <mxPoint x="696" y="760" as="targetPoint" />
            <Array as="points">
              <mxPoint x="696" y="760" />
            </Array>
          </mxGeometry>
        </mxCell>
        <mxCell id="kCOzz2MXneOkSR3qFhcY-14" value="" style="endArrow=classic;html=1;rounded=1;fontSize=14;fontStyle=1;strokeWidth=2;" parent="1" edge="1">
          <mxGeometry width="50" height="50" relative="1" as="geometry">
            <mxPoint x="145" y="379" as="sourcePoint" />
            <mxPoint x="472" y="379" as="targetPoint" />
          </mxGeometry>
        </mxCell>
        <mxCell id="kCOzz2MXneOkSR3qFhcY-15" value="1. Coodinator 向 source task &lt;br&gt;触发 CP" style="edgeLabel;html=1;align=center;verticalAlign=middle;resizable=0;points=[];fontSize=14;fontStyle=1;rounded=1;" parent="kCOzz2MXneOkSR3qFhcY-14" vertex="1" connectable="0">
          <mxGeometry x="0.0285" y="-1" relative="1" as="geometry">
            <mxPoint as="offset" />
          </mxGeometry>
        </mxCell>
        <mxCell id="kCOzz2MXneOkSR3qFhcY-16" value="" style="group;fontSize=14;fontStyle=1;rounded=1;" parent="1" vertex="1" connectable="0">
          <mxGeometry x="874" y="250" width="120" height="93" as="geometry" />
        </mxCell>
        <mxCell id="kCOzz2MXneOkSR3qFhcY-17" value="" style="rounded=1;whiteSpace=wrap;html=1;fontSize=14;fontStyle=1;" parent="kCOzz2MXneOkSR3qFhcY-16" vertex="1">
          <mxGeometry width="120" height="60" as="geometry" />
        </mxCell>
        <mxCell id="kCOzz2MXneOkSR3qFhcY-18" value="Statebackend" style="text;html=1;align=center;verticalAlign=middle;resizable=0;points=[];autosize=1;strokeColor=none;fillColor=none;fontSize=14;fontStyle=1;rounded=1;" parent="kCOzz2MXneOkSR3qFhcY-16" vertex="1">
          <mxGeometry x="12" y="19.5" width="101" height="21" as="geometry" />
        </mxCell>
        <mxCell id="kCOzz2MXneOkSR3qFhcY-19" style="edgeStyle=orthogonalEdgeStyle;rounded=1;orthogonalLoop=1;jettySize=auto;html=1;exitX=0.5;exitY=1;exitDx=0;exitDy=0;fontSize=14;dashed=1;endArrow=none;endFill=0;fontStyle=1;" parent="1" source="kCOzz2MXneOkSR3qFhcY-17" edge="1">
          <mxGeometry relative="1" as="geometry">
            <mxPoint x="934" y="762" as="targetPoint" />
            <Array as="points">
              <mxPoint x="934" y="762" />
            </Array>
          </mxGeometry>
        </mxCell>
        <mxCell id="kCOzz2MXneOkSR3qFhcY-20" value="" style="endArrow=classic;html=1;rounded=1;fontSize=14;fontStyle=1;strokeWidth=2;" parent="1" edge="1">
          <mxGeometry width="50" height="50" relative="1" as="geometry">
            <mxPoint x="473" y="435" as="sourcePoint" />
            <mxPoint x="145" y="435" as="targetPoint" />
          </mxGeometry>
        </mxCell>
        <mxCell id="kCOzz2MXneOkSR3qFhcY-21" value="2. source完成CP&lt;br&gt;向coordinator 发送确认" style="edgeLabel;html=1;align=center;verticalAlign=middle;resizable=0;points=[];fontSize=14;fontStyle=1;rounded=1;" parent="kCOzz2MXneOkSR3qFhcY-20" vertex="1" connectable="0">
          <mxGeometry x="0.0285" y="-1" relative="1" as="geometry">
            <mxPoint x="-8" y="6" as="offset" />
          </mxGeometry>
        </mxCell>
        <mxCell id="kCOzz2MXneOkSR3qFhcY-23" value="" style="endArrow=classic;html=1;rounded=1;fontSize=14;fontStyle=1;strokeWidth=2;" parent="1" edge="1">
          <mxGeometry width="50" height="50" relative="1" as="geometry">
            <mxPoint x="472" y="484" as="sourcePoint" />
            <mxPoint x="694" y="484" as="targetPoint" />
          </mxGeometry>
        </mxCell>
        <mxCell id="kCOzz2MXneOkSR3qFhcY-24" value="3. source完成CP&lt;br&gt;向下游发送barrier" style="edgeLabel;html=1;align=center;verticalAlign=middle;resizable=0;points=[];fontSize=14;fontStyle=1;rounded=1;" parent="kCOzz2MXneOkSR3qFhcY-23" vertex="1" connectable="0">
          <mxGeometry x="0.0285" y="-1" relative="1" as="geometry">
            <mxPoint x="-2" y="-4" as="offset" />
          </mxGeometry>
        </mxCell>
        <mxCell id="kCOzz2MXneOkSR3qFhcY-25" value="" style="endArrow=classic;html=1;rounded=1;fontSize=14;fontStyle=1;strokeWidth=2;" parent="1" edge="1">
          <mxGeometry width="50" height="50" relative="1" as="geometry">
            <mxPoint x="696" y="540" as="sourcePoint" />
            <mxPoint x="936" y="540" as="targetPoint" />
          </mxGeometry>
        </mxCell>
        <mxCell id="kCOzz2MXneOkSR3qFhcY-26" value="4. sink 收到所有上游barrier&lt;br&gt;进行CP，并持久化state" style="edgeLabel;html=1;align=center;verticalAlign=middle;resizable=0;points=[];fontSize=14;fontStyle=1;rounded=1;" parent="kCOzz2MXneOkSR3qFhcY-25" vertex="1" connectable="0">
          <mxGeometry x="0.0285" y="-1" relative="1" as="geometry">
            <mxPoint x="-3" y="-2" as="offset" />
          </mxGeometry>
        </mxCell>
        <mxCell id="kCOzz2MXneOkSR3qFhcY-28" value="" style="endArrow=classic;html=1;rounded=1;fontSize=14;fontStyle=1;strokeWidth=2;" parent="1" edge="1">
          <mxGeometry width="50" height="50" relative="1" as="geometry">
            <mxPoint x="698" y="588" as="sourcePoint" />
            <mxPoint x="146" y="588" as="targetPoint" />
          </mxGeometry>
        </mxCell>
        <mxCell id="kCOzz2MXneOkSR3qFhcY-29" value="5. sink 完成 CP&lt;br&gt;向coordinator发送确认" style="edgeLabel;html=1;align=center;verticalAlign=middle;resizable=0;points=[];fontSize=14;fontStyle=1;rounded=1;" parent="kCOzz2MXneOkSR3qFhcY-28" vertex="1" connectable="0">
          <mxGeometry x="0.0285" y="-1" relative="1" as="geometry">
            <mxPoint x="165" y="-1" as="offset" />
          </mxGeometry>
        </mxCell>
        <mxCell id="kCOzz2MXneOkSR3qFhcY-30" value="" style="endArrow=classic;html=1;rounded=1;fontSize=14;fontStyle=1;strokeWidth=2;" parent="1" edge="1">
          <mxGeometry width="50" height="50" relative="1" as="geometry">
            <mxPoint x="145" y="676" as="sourcePoint" />
            <mxPoint x="936" y="676" as="targetPoint" />
          </mxGeometry>
        </mxCell>
        <mxCell id="kCOzz2MXneOkSR3qFhcY-31" value="6. coordinator 收到所有 ack&amp;nbsp;&lt;br&gt;持久化本次 CP meta 到远端" style="edgeLabel;html=1;align=center;verticalAlign=middle;resizable=0;points=[];fontSize=14;fontStyle=1;rounded=1;" parent="kCOzz2MXneOkSR3qFhcY-30" vertex="1" connectable="0">
          <mxGeometry x="0.0285" y="-1" relative="1" as="geometry">
            <mxPoint x="-244" y="-5" as="offset" />
          </mxGeometry>
        </mxCell>
      </root>
    </mxGraphModel>
  </diagram>
</mxfile>
